<svg xmlns="http://www.w3.org/2000/svg" viewBox="0 0 3122 660"><path fill="#000" fill-rule="evenodd" d="M89.0 658.5C79.3 656.9 65.6 653.1 56.0 649.3C46.9 645.7 31.2 636.6 23.6 630.6C13.8 622.8 0.0 609.3 0.0 607.6C0.0 606.8 1.0 605.5 2.2 604.9C3.5 604.2 9.6 599.0 15.7 593.4C22.2 587.4 27.8 583.0 29.0 583.0C31.3 583.0 32.0 583.6 41.7 595.2C61.6 618.8 88.9 633.6 118.6 636.8C127.7 637.8 128.9 637.8 141.9 635.9C176.9 630.8 207.4 599.1 216.4 558.5C219.9 542.5 220.0 537.4 220.0 348.1L220.0 160.3L222.1 157.6L224.1 155.0L243.4 155.0C258.4 155.0 263.0 155.3 264.6 156.4C266.5 157.8 266.5 160.8 266.5 339.2C266.5 509.8 266.4 521.1 264.7 531.0C260.4 555.8 253.3 574.2 240.4 594.0C225.9 616.1 208.6 631.6 185.0 643.6C172.8 649.8 163.8 653.0 148.5 656.7C138.9 659.0 135.0 659.4 117.5 659.6C103.7 659.8 94.8 659.5 89.0 658.5ZM468.5 506.5C436.1 502.4 406.1 489.7 380.0 469.1C360.2 453.5 340.1 428.3 331.4 408.0C330.6 406.1 329.3 403.1 328.5 401.5C325.5 394.5 319.8 376.4 317.9 367.3C312.5 341.2 314.3 309.8 322.9 281.0C331.4 252.4 348.9 224.7 371.5 203.9C395.0 182.4 423.8 167.7 456.0 161.0C468.8 158.3 498.6 157.2 512.5 158.9C557.3 164.4 600.3 189.1 628.2 225.2C640.1 240.6 649.6 258.1 655.9 276.5C664.0 299.9 667.0 328.8 664.1 354.5C660.2 387.3 646.5 418.3 623.8 445.5C602.6 471.0 577.6 487.8 545.1 498.5C518.3 507.4 494.9 509.9 468.5 506.5ZM1315.8 507.2C1310.1 506.5 1310.5 523.7 1310.2 258.1C1310.1 123.0 1310.3 10.5 1310.6 8.1C1311.8 0.2 1312.4 -0.0 1333.4 -0.0C1343.5 -0.0 1352.6 0.3 1353.5 0.6C1358.1 2.4 1358.0 1.0 1358.0 101.4C1358.0 166.0 1358.3 196.1 1359.0 196.5C1359.6 196.9 1361.1 196.5 1362.3 195.6C1363.5 194.8 1366.4 192.7 1368.8 191.0C1382.6 181.3 1402.8 172.2 1425.0 165.7C1447.3 159.2 1480.6 157.5 1503.0 161.8C1536.6 168.3 1566.0 184.0 1591.0 209.0C1609.7 227.7 1623.4 249.5 1632.8 276.0C1640.2 296.9 1642.4 310.8 1642.4 338.0C1642.5 363.3 1641.1 372.3 1634.3 392.8C1623.5 425.4 1599.9 456.6 1570.6 476.8C1562.6 482.4 1544.5 492.0 1535.0 495.8C1493.1 512.3 1442.6 512.1 1400.0 495.4C1389.1 491.1 1372.0 481.2 1362.8 473.9C1361.4 472.7 1359.7 472.1 1359.1 472.4C1358.4 472.9 1358.0 478.4 1358.0 488.4C1358.0 501.7 1357.8 503.9 1356.2 505.3C1354.8 506.6 1351.2 506.9 1336.5 507.2C1326.6 507.4 1317.3 507.4 1315.8 507.2ZM2812.4 507.2C2811.2 507.0 2809.5 506.1 2808.6 505.1C2807.1 503.5 2807.0 482.0 2807.2 253.6L2807.5 3.8L2809.9 1.9C2812.0 0.2 2814.0 -0.0 2830.0 -0.0C2839.8 -0.0 2848.6 0.3 2849.5 0.6C2854.1 2.4 2854.0 0.6 2854.0 107.5C2854.0 203.7 2854.1 208.0 2855.8 208.0C2856.8 208.0 2859.2 206.4 2861.1 204.4C2869.8 195.3 2894.6 178.9 2910.0 172.1C2947.1 155.6 2994.0 154.1 3033.0 168.0C3046.0 172.6 3051.2 175.2 3062.9 183.0C3090.8 201.7 3108.9 231.1 3115.4 268.2C3116.2 273.0 3117.7 278.4 3118.7 280.2C3120.4 283.3 3120.5 289.7 3121.0 392.0C3121.3 451.7 3121.3 501.0 3121.2 501.7C3121.0 502.4 3119.3 503.8 3117.4 505.0C3114.2 506.8 3112.2 507.0 3093.0 507.0C3075.4 507.0 3071.9 506.8 3070.6 505.4C3069.7 504.6 3069.0 503.3 3069.0 502.7C3069.0 502.0 3069.0 454.2 3069.0 396.3C3069.0 327.7 3068.7 287.1 3068.0 279.4C3064.4 241.7 3046.2 211.1 3017.9 195.6C2998.7 185.1 2973.1 181.4 2951.6 186.0C2939.4 188.7 2928.0 193.1 2916.9 199.6C2892.4 213.9 2868.5 240.7 2857.1 266.9L2854.0 273.8L2854.0 388.3C2854.0 495.9 2853.9 502.9 2852.2 504.9C2850.6 506.8 2849.3 507.0 2832.5 507.2C2822.6 507.4 2813.5 507.4 2812.4 507.2ZM714.6 505.2C713.1 503.5 713.0 490.4 713.0 331.0C713.0 172.3 713.1 158.5 714.7 156.8C716.2 155.2 718.2 155.0 736.5 155.0C754.8 155.0 756.8 155.2 758.3 156.8C759.9 158.5 760.0 172.1 760.0 331.3C760.0 486.8 759.8 504.0 758.4 505.4C757.1 506.8 753.7 507.0 736.6 507.0C718.2 507.0 716.2 506.8 714.6 505.2ZM945.5 506.4C909.1 500.9 878.1 486.4 854.1 463.5C830.9 441.3 816.6 416.0 809.8 385.2C806.7 371.1 806.7 341.7 809.8 327.8C813.1 312.8 815.1 307.1 822.1 292.6C851.4 231.5 921.9 195.2 990.0 206.0C1018.1 210.5 1041.5 220.4 1063.6 237.1C1069.1 241.3 1070.5 241.8 1071.3 239.6C1071.6 238.9 1071.4 230.2 1071.0 220.4C1070.0 200.7 1068.3 193.1 1063.1 185.7C1052.6 170.6 1037.9 166.4 1009.1 170.5C999.8 171.8 998.4 171.8 996.3 170.5C993.2 168.5 993.4 165.7 997.0 153.6C998.7 148.1 1000.0 143.6 1000.0 143.5C1000.0 143.3 1001.5 142.5 1003.2 141.7C1006.1 140.4 1007.9 140.4 1018.3 141.6C1075.1 148.2 1106.8 174.8 1116.1 223.5C1117.8 232.5 1118.0 238.5 1118.0 285.0C1118.0 313.3 1117.5 348.0 1117.0 362.0C1116.5 376.0 1116.0 401.0 1115.9 417.5C1115.8 444.2 1116.0 448.6 1117.9 457.2C1120.1 467.8 1123.0 477.1 1126.2 484.0C1127.3 486.4 1128.6 489.4 1129.1 490.6C1130.4 494.3 1127.0 497.4 1118.3 500.5C1114.0 502.0 1108.8 504.1 1106.8 505.2C1099.6 508.7 1097.5 507.6 1090.7 496.9C1085.4 488.4 1080.3 478.6 1078.5 473.0C1077.2 469.0 1076.4 468.0 1074.6 468.0C1073.4 468.0 1071.3 469.1 1070.0 470.5C1066.4 474.4 1049.5 485.3 1039.5 490.3C1028.5 495.8 1015.1 500.4 1000.5 503.7C991.1 505.8 986.4 506.2 969.0 506.5C957.7 506.7 947.1 506.6 945.5 506.4ZM1846.0 506.0C1818.7 502.7 1789.7 492.3 1768.6 478.0C1720.2 445.4 1693.4 396.9 1689.5 335.0C1686.6 290.4 1706.5 241.6 1740.9 208.7C1789.1 162.7 1859.1 146.2 1920.0 166.5C1928.9 169.5 1947.5 178.6 1956.5 184.5C1982.2 201.1 2002.6 224.9 2016.7 254.5C2018.5 258.4 2020.5 262.3 2021.1 263.4C2023.8 268.1 2024.9 273.1 2023.9 275.4C2022.6 278.3 2028.8 275.3 1948.0 311.2C1910.9 327.7 1878.0 342.3 1875.0 343.7C1864.0 348.8 1861.1 350.0 1840.0 359.3C1819.1 368.5 1812.6 371.5 1797.2 378.6C1793.1 380.5 1789.7 382.0 1789.4 382.0C1789.2 382.0 1786.5 383.2 1783.3 384.6C1780.1 386.0 1776.2 387.8 1774.5 388.5C1760.6 394.5 1758.0 396.0 1758.0 398.2C1758.0 400.8 1769.4 420.9 1776.0 430.3C1782.9 439.8 1798.6 455.2 1807.3 460.9C1821.8 470.2 1836.1 476.4 1852.5 480.2C1865.3 483.2 1886.0 483.1 1898.5 480.1C1929.9 472.5 1955.2 454.7 1970.2 429.5C1975.1 421.3 1979.0 413.4 1979.0 411.7C1979.0 409.2 1983.1 405.0 1985.4 405.0C1988.2 405.0 2010.8 419.1 2013.4 422.4C2015.2 424.8 2015.2 424.9 2012.9 428.7C2008.6 435.7 1995.4 451.4 1987.6 458.8C1973.4 472.2 1954.6 484.6 1937.0 492.0C1932.9 493.8 1928.1 495.8 1926.5 496.5C1921.6 498.5 1908.3 502.0 1897.0 504.1C1884.9 506.4 1857.8 507.4 1846.0 506.0ZM2204.5 506.4C2168.2 500.9 2137.6 486.4 2112.1 462.5C2096.7 448.1 2080.9 423.4 2074.1 403.2C2065.9 379.0 2064.3 349.9 2069.6 325.6C2081.6 270.8 2126.7 224.9 2183.5 209.5C2214.5 201.1 2250.7 202.7 2280.3 213.8C2295.3 219.5 2310.7 227.8 2321.6 236.1C2331.3 243.6 2331.4 243.5 2330.5 222.3C2329.7 203.3 2328.2 195.6 2323.6 187.8C2319.9 181.4 2313.3 175.5 2306.5 172.3C2298.7 168.7 2285.4 168.1 2269.1 170.4C2258.8 172.0 2257.6 172.0 2255.4 170.5C2252.8 168.8 2252.4 166.4 2254.0 161.6C2254.6 159.9 2255.9 155.3 2257.1 151.3C2258.2 147.4 2260.0 143.4 2261.0 142.5C2263.2 140.5 2268.9 140.4 2281.5 142.0C2335.7 149.3 2367.1 176.7 2375.8 224.5C2378.0 236.2 2378.1 287.6 2376.1 374.2C2375.3 408.2 2375.0 439.7 2375.4 444.2C2376.6 458.2 2380.5 473.2 2386.5 486.3C2389.0 491.8 2389.1 492.2 2387.5 494.6C2386.6 496.0 2384.9 497.5 2383.7 498.0C2382.5 498.5 2377.1 500.7 2371.8 503.0C2359.3 508.4 2357.9 508.2 2352.5 500.4C2347.0 492.6 2340.2 480.0 2338.0 473.6C2335.8 466.9 2333.4 466.5 2327.6 471.8C2317.7 480.9 2296.8 492.4 2279.7 498.2C2260.9 504.4 2250.5 506.1 2228.0 506.5C2216.7 506.7 2206.2 506.6 2204.5 506.4ZM2594.5 506.4C2562.6 501.8 2537.5 493.0 2515.5 478.5C2483.6 457.5 2458.4 425.3 2446.1 389.5C2435.6 359.2 2432.7 325.9 2438.4 299.5C2442.7 279.3 2445.7 270.4 2453.5 254.8C2469.6 222.6 2495.8 196.2 2529.7 178.3C2555.9 164.4 2589.0 156.0 2617.5 156.0C2622.6 156.0 2632.4 156.7 2639.2 157.6C2678.0 162.4 2709.7 176.6 2740.1 202.7C2750.1 211.3 2751.0 212.4 2751.0 215.6C2751.0 217.5 2750.3 220.5 2749.4 222.2C2748.6 223.8 2747.2 227.1 2746.5 229.4C2742.0 243.5 2739.3 248.0 2735.5 248.0C2733.0 248.0 2731.9 246.8 2726.5 239.0C2705.1 207.8 2675.7 189.1 2636.6 182.0C2587.6 173.0 2533.9 195.2 2506.8 235.5C2483.9 269.7 2478.5 309.9 2489.9 361.5C2502.3 417.4 2537.6 460.6 2583.5 476.2C2594.2 479.8 2608.7 482.0 2621.6 482.0C2662.1 482.0 2697.7 461.4 2717.6 426.5C2719.9 422.6 2722.2 417.9 2722.9 416.0C2724.9 410.0 2728.8 405.0 2731.3 405.0C2733.6 405.0 2753.6 416.9 2757.8 420.8C2759.0 422.0 2760.0 423.8 2760.0 424.9C2760.0 427.8 2748.8 442.2 2738.0 453.0C2720.7 470.4 2702.9 483.1 2683.1 492.0C2659.4 502.7 2644.0 506.0 2616.5 506.5C2606.1 506.7 2596.2 506.6 2594.5 506.4ZM981.7 483.5C990.9 482.0 1008.6 476.2 1017.0 472.0C1035.1 462.9 1055.7 445.8 1066.6 431.0L1070.7 425.5L1071.2 353.9C1071.7 294.8 1071.5 281.8 1070.4 279.1C1068.8 275.4 1054.7 261.1 1046.9 255.3C1034.9 246.4 1018.8 238.4 1004.5 234.0C991.4 230.0 977.9 228.7 962.7 230.1C920.4 233.7 889.1 255.5 871.5 293.4C862.6 312.7 860.0 325.4 860.0 350.6C860.0 386.5 867.8 415.9 883.6 440.0C898.5 462.6 920.9 478.8 944.0 483.5C952.9 485.3 970.6 485.3 981.7 483.5ZM2240.0 483.6C2258.6 480.6 2278.0 472.4 2295.1 460.4C2304.1 454.1 2322.9 436.1 2327.3 429.4L2330.0 425.4L2330.5 352.8L2331.1 280.3L2327.2 275.4C2310.2 254.0 2279.1 235.8 2250.9 230.9C2242.0 229.4 2222.2 229.4 2212.5 231.0C2166.4 238.3 2133.7 270.3 2121.8 319.5C2119.8 327.4 2119.6 331.3 2119.6 351.0C2119.6 370.2 2119.9 375.2 2121.8 385.2C2127.7 415.6 2139.2 439.1 2157.0 457.1C2171.2 471.4 2186.5 480.1 2203.5 483.6C2211.8 485.2 2229.9 485.3 2240.0 483.6ZM532.5 480.5C570.5 470.4 600.5 439.1 612.9 396.5C617.4 380.9 618.5 372.4 618.5 351.0C618.5 333.6 618.1 328.8 616.2 319.5C608.2 280.6 590.0 246.5 563.8 221.4C544.4 202.8 523.5 191.2 498.0 184.9C484.2 181.6 460.3 181.5 448.0 184.8C426.4 190.7 412.3 198.6 397.5 213.5C382.1 228.8 372.6 245.7 365.7 270.0C361.3 285.2 359.8 313.3 362.4 332.5C370.9 397.3 411.9 455.5 463.0 475.5C471.2 478.7 483.0 481.9 490.5 483.0C501.5 484.6 521.4 483.4 532.5 480.5ZM1488.3 482.9C1496.4 481.6 1509.7 477.2 1518.2 472.9C1540.7 461.5 1559.9 441.3 1572.4 415.6C1580.6 398.9 1583.5 390.4 1587.7 369.5C1590.1 357.5 1590.3 354.5 1590.4 330.5C1590.5 309.0 1590.2 303.0 1588.7 296.0C1586.7 286.6 1582.2 270.3 1580.9 268.0C1580.4 267.2 1578.7 263.2 1577.0 259.2C1564.9 230.7 1541.3 206.1 1514.4 194.0C1491.0 183.5 1460.5 181.8 1435.0 189.5C1415.5 195.5 1396.0 206.4 1379.4 220.9C1371.4 227.8 1361.2 238.7 1359.2 242.7C1358.3 244.3 1358.0 268.3 1358.0 332.8L1358.0 420.8L1361.5 426.1C1372.7 442.6 1392.0 459.3 1413.1 470.4C1422.6 475.4 1440.6 481.6 1449.5 482.9C1458.4 484.2 1480.1 484.2 1488.3 482.9ZM1756.6 368.1C1759.9 366.5 1768.8 362.4 1776.5 359.0C1784.2 355.6 1794.3 351.0 1799.0 348.8C1803.7 346.6 1813.6 342.1 1821.0 338.8C1828.4 335.5 1838.3 331.0 1843.0 328.8C1847.7 326.6 1855.5 323.0 1860.5 320.8C1870.1 316.6 1875.9 313.9 1888.0 308.3C1892.1 306.3 1901.6 302.1 1909.0 298.8C1916.4 295.5 1926.3 291.0 1931.0 288.8C1935.7 286.6 1943.4 283.0 1948.2 280.9C1955.9 277.5 1961.2 275.1 1973.7 269.3C1975.4 268.5 1977.1 267.2 1977.4 266.4C1978.1 264.5 1969.6 248.3 1962.1 237.5C1945.9 213.9 1924.8 197.6 1898.0 188.0C1884.6 183.2 1875.5 181.7 1860.5 181.7C1845.7 181.8 1837.9 183.0 1824.2 187.6C1793.3 197.9 1766.7 221.1 1753.0 249.5C1737.6 281.5 1734.1 315.2 1742.5 352.8C1745.3 365.6 1747.3 371.0 1749.3 371.0C1750.1 371.0 1753.4 369.7 1756.6 368.1ZM233.7 90.6C222.7 86.5 215.7 76.5 215.6 64.5C215.4 52.8 220.9 43.7 231.5 38.2C235.6 36.1 237.9 35.6 244.0 35.6C252.9 35.6 259.5 38.5 265.9 45.2C278.1 57.8 274.3 79.3 258.3 88.7C254.5 90.9 252.2 91.4 245.6 91.7C240.4 91.9 236.2 91.5 233.7 90.6ZM727.0 91.1C722.6 89.7 716.5 85.4 713.8 81.8C705.2 70.6 705.9 54.0 715.3 44.2C720.9 38.3 727.4 35.6 736.0 35.6C745.1 35.6 750.5 37.8 756.8 44.0C768.2 55.0 768.3 72.5 757.2 83.1C749.5 90.5 747.5 91.4 738.0 91.7C733.3 91.8 728.4 91.6 727.0 91.1Z"/></svg>