<svg xmlns="http://www.w3.org/2000/svg" viewBox="0 0 4697 1384"><path fill="#000" fill-rule="evenodd" d="M280.1 1383.0C278.8 1382.4 275.1 1379.3 271.9 1376.0C267.0 1370.9 265.7 1368.9 263.9 1362.9C261.6 1355.3 261.6 1355.0 264.1 1331.5C266.0 1313.4 263.7 1289.8 259.2 1281.5C258.7 1280.4 257.0 1276.1 255.6 1272.1C252.6 1263.4 252.2 1255.3 254.6 1246.5C260.2 1224.8 260.2 1209.2 254.5 1193.1C252.5 1187.2 252.6 1176.7 254.9 1169.4C255.9 1166.2 257.8 1160.1 259.1 1156.0C262.2 1146.0 262.3 1132.2 259.1 1123.6C255.6 1113.9 256.1 1104.9 261.1 1089.9C265.2 1077.7 265.2 1077.3 264.9 1065.0C264.4 1041.9 264.6 1036.7 266.8 1028.0C268.0 1023.1 269.4 1012.9 270.0 1004.0C271.4 984.0 273.4 964.8 275.9 948.5C278.2 933.2 286.4 887.5 288.7 877.7C289.5 873.9 289.9 870.6 289.5 870.2C288.2 868.9 285.5 871.8 282.2 878.1C274.0 893.3 249.4 932.3 223.5 971.0C165.9 1056.9 132.9 1103.4 79.8 1173.6C48.4 1215.0 40.3 1224.6 28.4 1235.2C15.5 1246.6 4.2 1250.1 1.2 1243.7C-0.7 1239.7 0.4 1236.1 6.9 1226.2C16.6 1211.5 22.6 1204.3 40.0 1186.1C60.2 1165.0 61.5 1163.4 71.5 1145.5C84.4 1122.3 90.6 1113.7 106.5 1096.9C115.4 1087.5 119.8 1080.9 129.5 1062.5C142.6 1037.6 145.5 1033.6 165.0 1013.5C183.6 994.4 189.0 987.5 196.9 972.5C207.7 952.2 217.3 936.8 227.4 923.2C241.8 904.0 246.6 896.7 270.2 858.0C285.3 833.3 301.3 805.8 312.5 785.5C323.8 765.0 343.5 724.7 346.0 717.0C346.5 715.6 348.3 711.1 350.0 707.0C354.3 696.9 360.3 678.5 363.0 667.5C365.6 656.9 367.0 632.7 365.1 629.3C364.2 627.5 356.7 623.0 354.6 623.0C354.2 623.0 351.2 625.5 348.0 628.6C343.3 633.1 341.6 634.1 339.3 633.8C334.9 633.3 335.2 630.1 340.8 619.2C349.9 601.1 355.7 580.1 358.0 555.8C358.6 550.1 359.2 544.6 359.5 543.5C359.7 542.4 360.6 534.5 361.5 526.1C363.1 509.7 362.6 506.3 359.2 510.6C358.3 511.8 354.7 516.3 351.2 520.8C343.1 531.1 325.3 548.3 315.8 555.0C300.3 565.9 293.1 568.0 285.6 563.6C281.7 561.3 280.1 561.0 274.3 561.2C268.7 561.5 267.5 561.2 267.2 559.8C267.0 558.9 269.7 554.4 273.2 549.8C290.5 527.0 305.0 502.2 319.0 471.5C320.7 467.6 323.0 462.8 324.1 460.8C325.1 458.8 326.0 456.4 326.0 455.5C326.0 454.6 326.9 452.2 327.9 450.2C330.5 445.1 332.3 439.2 331.5 438.0C330.6 436.5 325.8 436.8 323.6 438.5C322.5 439.3 319.9 440.0 317.8 440.0C315.7 440.0 311.4 440.9 308.3 442.0C305.1 443.1 301.1 444.0 299.3 444.0C297.5 444.0 293.8 444.9 291.0 446.0C288.2 447.1 284.3 448.0 282.2 448.0C280.2 448.0 276.5 448.9 274.1 450.0C271.7 451.1 267.8 452.0 265.4 452.0C262.9 452.0 259.2 452.9 257.0 454.0C254.6 455.2 251.1 456.0 248.1 456.0C244.8 456.0 241.9 456.7 239.8 458.0C237.6 459.3 234.7 460.0 231.1 460.0C227.5 460.0 225.1 460.5 223.8 461.6C222.8 462.6 219.2 463.6 215.3 464.0C211.5 464.4 206.7 465.5 204.5 466.3C202.3 467.2 199.5 467.9 198.3 468.0C197.0 468.0 192.8 468.8 188.8 469.9C184.8 470.9 177.2 472.8 172.0 474.0C151.1 478.9 144.1 482.8 120.5 502.9C105.9 515.2 98.4 519.3 88.9 519.8C65.9 521.1 42.5 505.9 26.1 478.8C15.1 460.7 14.9 443.2 25.5 427.3C30.5 419.8 38.4 415.9 48.6 415.8C55.3 415.8 56.5 416.1 61.0 419.0C64.3 421.1 69.7 426.7 76.4 435.0C95.0 457.7 100.6 460.3 132.5 461.6C145.5 462.1 153.0 461.9 164.5 460.6C177.9 459.1 184.1 458.0 201.5 453.9C208.5 452.3 219.0 451.6 219.0 452.8C219.0 454.0 214.5 455.8 210.6 456.2C207.2 456.5 206.4 457.9 208.2 460.2C209.4 461.7 210.0 461.7 216.0 460.3C219.6 459.5 224.5 458.2 227.0 457.4C229.5 456.7 233.9 455.8 236.8 455.4C239.7 455.0 242.3 454.4 242.5 453.9C242.8 453.5 245.6 452.6 248.8 452.0C251.9 451.4 257.4 450.0 261.0 449.0C269.4 446.6 275.2 445.2 282.0 443.9C285.0 443.3 289.5 442.2 292.0 441.4C294.5 440.7 299.0 439.6 302.0 439.1C305.0 438.5 310.0 437.4 313.0 436.6C316.0 435.7 319.4 435.0 320.5 435.0C321.6 434.9 325.0 434.1 328.0 433.0C331.0 431.9 335.3 431.1 337.5 431.0C339.8 431.0 342.0 430.6 342.6 430.0C343.1 429.5 346.9 428.4 351.0 427.5C358.5 426.0 360.9 425.5 375.1 421.9C379.3 420.9 384.5 420.0 386.6 420.0C388.8 420.0 391.8 419.1 393.5 418.0C395.1 416.9 398.1 416.0 400.0 416.0C401.9 416.0 406.0 415.1 409.0 414.0C412.0 412.9 416.3 412.0 418.5 412.0C420.7 412.0 424.5 411.1 426.9 410.0C429.3 408.9 432.9 408.0 434.9 408.0C436.9 407.9 440.3 407.2 442.5 406.4C444.7 405.6 447.9 404.4 449.7 403.9C453.7 402.7 454.6 401.4 452.9 399.4C452.0 398.3 450.5 398.0 448.1 398.3C442.9 398.9 429.0 401.9 425.5 403.1C423.9 403.7 419.6 404.8 416.0 405.5C412.4 406.2 408.2 407.3 406.7 407.9C403.2 409.3 397.3 409.3 396.5 408.0C396.2 407.5 397.0 405.9 398.5 404.6C400.2 403.0 403.0 396.9 407.1 385.9C414.5 366.0 414.4 366.4 413.6 364.5C412.7 362.1 409.6 364.2 407.5 368.7C404.3 375.5 393.3 397.4 390.9 401.7C388.6 405.8 388.6 405.9 390.5 408.0C393.1 410.9 392.2 411.3 378.0 414.5C371.7 415.9 365.1 417.6 363.5 418.2C361.9 418.8 358.2 419.7 355.5 420.2C352.8 420.7 349.1 421.6 347.5 422.2C345.9 422.8 341.4 423.8 337.5 424.4C333.6 425.1 329.6 426.1 328.5 426.7C327.4 427.3 324.1 428.0 321.2 428.3C318.3 428.6 315.0 429.6 313.8 430.5C312.5 431.3 309.5 432.0 307.0 432.0C304.5 432.1 300.7 432.9 298.5 434.0C296.3 435.1 292.5 436.0 290.0 436.0C287.2 436.0 284.3 436.8 282.5 438.0C280.4 439.4 277.8 440.0 274.1 440.0C270.4 440.0 268.1 440.5 266.8 441.7C265.6 442.8 262.6 443.5 258.7 443.8C255.0 444.1 251.8 444.9 250.7 445.8C248.6 447.7 237.0 448.8 237.0 447.2C237.0 445.3 240.7 444.0 246.0 444.0C249.7 444.0 251.9 443.4 253.7 442.0C255.6 440.6 257.8 440.0 261.7 440.0C265.7 440.0 267.9 439.4 269.7 438.0C271.5 436.6 273.8 436.0 277.1 436.0C280.2 436.0 283.1 435.3 285.2 434.0C287.2 432.8 290.3 432.0 293.0 432.0C295.8 432.0 298.6 431.2 300.5 430.0C302.5 428.7 305.2 428.0 308.5 428.0C311.8 428.0 314.5 427.3 316.5 426.0C318.5 424.7 321.2 424.0 324.5 424.0C333.8 424.0 338.6 418.9 341.6 406.0C342.2 403.0 343.3 399.1 343.9 397.5C345.2 393.8 346.4 389.4 359.1 344.5C364.6 324.7 370.2 304.9 371.5 300.5C372.8 296.1 374.6 289.8 375.5 286.5C376.4 283.2 378.1 277.4 379.2 273.5C383.6 258.2 385.1 253.1 388.1 242.0C391.4 229.6 390.2 231.6 409.5 204.4C414.4 197.4 420.8 188.4 423.5 184.5C434.6 168.6 463.5 128.3 466.1 124.8C467.7 122.8 469.0 120.4 469.0 119.6C469.0 117.1 465.1 115.7 460.0 116.4C454.0 117.2 452.0 116.4 452.0 113.4C452.0 105.8 457.7 100.0 472.0 92.9C484.8 86.6 488.0 84.4 488.0 81.9C488.0 80.4 487.3 80.0 484.6 80.0C478.3 80.0 467.3 75.1 462.1 70.1C456.9 65.0 452.7 57.3 453.2 53.8C453.6 50.6 456.7 50.4 464.9 52.9C468.7 54.0 475.1 55.5 479.3 56.1C486.0 57.1 487.3 57.0 489.5 55.6C493.2 53.2 492.6 51.1 487.4 48.8C478.1 44.7 470.6 33.9 474.4 30.1C475.7 28.8 476.4 28.9 479.7 30.3C492.8 36.0 507.7 36.9 521.4 33.0C525.8 31.8 530.1 30.4 530.9 30.0C531.8 29.5 535.4 27.7 539.0 26.0C542.6 24.3 549.1 20.9 553.5 18.4C563.7 12.7 578.2 5.6 584.0 3.5C592.2 0.5 595.4 0.0 607.2 0.0C628.0 -0.0 637.7 4.6 660.5 25.0C664.9 29.0 670.4 33.3 672.7 34.7L676.9 37.1L758.2 37.4C869.6 37.9 891.2 39.1 912.2 45.6C917.2 47.2 919.9 49.5 918.4 51.0C917.9 51.4 898.4 52.0 875.0 52.3C844.9 52.6 828.1 53.2 817.5 54.4C795.0 56.8 769.4 59.8 751.5 62.0C742.7 63.1 728.1 64.9 719.0 66.0C709.9 67.1 700.3 68.0 697.7 68.0C695.0 68.0 690.7 68.9 687.9 70.1C683.2 72.1 682.5 73.0 673.5 87.6C656.8 114.4 646.0 126.9 631.2 136.5C623.2 141.7 623.4 141.3 622.5 155.0C621.8 166.0 620.0 179.1 616.4 197.5C614.3 208.6 612.5 216.0 607.0 236.5C600.9 259.4 583.2 301.3 566.6 332.1C562.4 339.9 559.1 347.0 559.2 347.9C559.4 348.8 561.2 349.8 563.6 350.2C566.2 350.8 569.6 352.7 573.0 355.6C577.3 359.3 578.9 360.0 580.9 359.6C582.3 359.2 586.2 358.6 589.5 358.1C592.8 357.6 597.2 356.5 599.2 355.6C601.3 354.7 604.7 354.0 606.9 354.0C609.1 354.0 613.2 353.1 616.0 352.0C618.8 350.9 622.9 350.0 625.1 350.0C627.3 350.0 630.1 349.5 631.3 348.8C632.5 348.2 636.4 347.1 640.0 346.4C647.4 344.9 657.4 342.4 664.0 340.4C666.5 339.7 670.5 338.8 673.0 338.4C675.5 338.1 679.1 337.2 681.0 336.5C682.9 335.8 686.9 334.9 689.9 334.5C692.9 334.1 696.7 333.2 698.4 332.5C700.1 331.8 703.8 331.0 706.7 330.6C709.5 330.2 713.5 329.3 715.4 328.5C717.3 327.7 720.3 327.0 722.0 327.0C723.7 327.0 727.6 326.1 730.7 325.0C733.9 323.9 737.8 323.0 739.5 323.0C741.2 323.0 745.1 322.1 748.3 321.0C751.4 319.9 755.2 319.0 756.8 319.0C758.3 319.0 762.1 318.1 765.3 317.0C768.4 315.9 772.2 315.0 773.8 315.0C775.3 315.0 779.1 314.1 782.3 313.0C785.4 311.9 789.3 311.0 790.9 311.0C792.4 311.0 795.3 310.4 797.2 309.6C799.1 308.8 803.1 307.8 806.1 307.5C809.1 307.1 813.1 306.3 815.0 305.5C816.9 304.8 823.0 303.2 828.5 302.0C841.6 299.1 843.5 298.5 848.9 295.3C853.6 292.5 866.8 288.1 870.6 288.0C871.8 288.0 875.6 287.2 879.1 286.2C882.6 285.1 890.0 283.3 895.5 282.0C901.0 280.8 908.5 278.9 912.2 277.9C915.8 276.8 919.9 276.0 921.3 276.0C922.7 276.0 925.7 275.1 928.1 274.0C930.5 272.9 933.9 272.0 935.7 272.0C937.4 272.0 941.7 271.1 945.2 270.0C948.6 268.9 952.7 268.0 954.1 268.0C955.6 268.0 958.7 267.1 961.1 266.0C963.5 264.9 967.4 264.0 969.6 264.0C971.9 264.0 975.5 263.4 977.6 262.7C979.8 261.9 984.1 261.0 987.4 260.6C990.6 260.3 994.0 259.5 994.9 259.0C995.9 258.5 1000.7 257.4 1005.6 256.6C1010.5 255.8 1018.2 254.3 1022.7 253.4C1029.4 252.0 1031.4 251.9 1033.9 252.9C1039.9 255.4 1042.4 266.8 1038.0 271.5C1035.6 274.0 1032.6 275.1 1018.0 279.0C1004.0 282.6 994.9 285.1 988.0 287.0C969.3 292.2 959.2 294.8 951.0 296.5C947.4 297.2 943.2 298.3 941.7 298.9C940.1 299.5 937.6 300.0 936.1 300.0C934.6 300.0 930.7 300.9 927.4 301.9C924.2 302.9 917.0 304.8 911.5 306.0C895.2 309.6 885.0 312.0 876.1 314.2C868.0 316.3 864.8 316.5 850.5 316.1C845.7 315.9 841.5 316.5 837.0 317.9C833.4 319.0 828.9 320.0 827.0 320.0C825.1 320.0 821.5 320.9 819.1 322.0C816.7 323.1 812.8 324.0 810.4 324.0C807.9 324.0 804.4 324.9 802.3 326.0C800.0 327.2 796.6 328.0 793.8 328.0C790.8 328.0 787.8 328.7 785.8 330.0C783.8 331.2 780.7 332.0 778.2 332.0C775.9 332.0 772.2 332.9 770.0 334.0C767.8 335.1 764.3 336.0 762.0 336.0C759.8 336.0 756.3 336.9 754.3 338.0C752.2 339.1 748.6 340.0 746.3 340.0C743.9 340.0 740.3 340.9 738.3 342.0C736.2 343.1 732.9 344.0 730.9 344.0C728.9 344.0 725.3 344.9 722.9 346.0C720.5 347.1 716.7 348.0 714.5 348.0C712.3 348.0 708.7 348.9 706.5 350.0C704.3 351.1 700.6 351.9 698.2 352.0C695.8 352.0 692.6 352.7 690.9 353.5C689.3 354.4 684.9 355.4 681.1 355.9C677.4 356.4 673.4 357.3 672.2 357.9C671.1 358.5 667.6 359.3 664.4 359.6C661.1 360.0 657.4 360.8 656.0 361.5C654.6 362.2 651.0 363.0 647.9 363.3C644.8 363.6 640.8 364.5 639.2 365.4C637.5 366.3 634.0 367.0 631.5 367.0C629.0 367.0 625.6 367.7 624.0 368.5C622.4 369.4 618.9 370.3 616.3 370.6C613.6 370.9 609.9 371.8 608.0 372.6C606.1 373.3 602.0 374.4 599.0 374.9C593.4 375.8 558.5 384.4 545.0 388.2C540.9 389.3 536.7 391.0 535.6 391.9C532.6 394.5 519.8 411.7 511.7 424.1C497.4 445.9 494.0 454.1 480.9 497.0C469.7 534.1 470.5 532.3 435.5 596.5C424.4 616.9 413.4 637.1 411.0 641.5C386.5 687.2 383.0 693.8 371.4 717.0C358.7 742.3 346.3 768.9 342.5 779.0C341.7 780.9 340.2 785.0 339.0 788.0C330.3 810.2 318.9 850.0 312.5 880.0C298.2 948.0 291.0 1013.9 289.0 1097.1C288.5 1119.9 287.8 1139.8 287.5 1141.5C287.2 1143.2 286.3 1161.6 285.4 1182.5C284.6 1203.4 283.5 1226.1 283.0 1233.0C281.8 1248.9 283.5 1265.4 291.0 1315.0C297.3 1356.1 298.2 1368.5 295.6 1375.3C294.7 1377.8 293.1 1380.5 292.0 1381.5C289.8 1383.5 283.4 1384.3 280.1 1383.0ZM3757.5 914.1C3718.8 909.3 3688.5 897.9 3658.8 877.0C3647.0 868.7 3627.9 850.2 3619.0 838.6C3610.8 827.6 3601.9 813.2 3597.2 803.0C3593.1 794.2 3586.3 775.2 3585.0 769.5C3584.6 767.3 3583.5 762.6 3582.7 759.0C3578.6 741.9 3577.6 731.7 3577.6 708.5C3577.5 684.6 3578.4 676.4 3583.2 655.5C3592.2 615.6 3611.0 581.7 3639.1 554.5C3660.9 533.3 3683.2 519.3 3713.0 507.7C3750.7 493.1 3798.4 490.2 3844.0 499.6C3854.4 501.7 3861.2 503.4 3882.5 509.1C3886.3 510.1 3893.9 511.9 3899.3 513.1C3908.5 515.0 3909.3 515.0 3914.5 513.6C3919.8 512.0 3922.0 510.0 3925.6 503.6C3927.3 500.5 3929.6 499.4 3931.4 500.9C3932.8 502.1 3933.0 507.2 3932.8 548.4L3932.5 594.5L3929.8 594.8C3927.4 595.1 3926.8 594.6 3924.9 590.3C3917.9 574.6 3913.3 566.1 3907.9 559.1C3884.2 527.5 3845.2 510.9 3795.0 510.9C3749.9 510.8 3712.6 525.5 3683.0 555.0C3654.6 583.3 3638.0 619.2 3631.0 667.9C3628.6 684.3 3628.1 721.5 3630.0 735.0C3635.3 772.7 3644.2 799.0 3659.7 823.3C3693.4 876.2 3747.5 902.4 3812.3 897.2C3841.5 894.8 3864.9 887.7 3891.8 873.1C3905.8 865.5 3922.9 853.3 3928.4 847.1C3930.6 844.6 3934.5 844.3 3935.4 846.6C3936.3 849.0 3936.1 854.4 3934.9 857.8C3934.2 859.8 3930.6 863.5 3924.2 868.6C3898.1 889.5 3870.9 903.1 3841.0 910.1C3818.0 915.5 3782.8 917.2 3757.5 914.1ZM4275.0 909.0C4227.8 905.0 4196.6 878.4 4185.1 832.3C4181.4 818.0 4181.0 807.4 4181.0 727.5C4181.0 642.6 4180.9 641.3 4175.4 633.0C4171.9 627.8 4165.0 623.3 4159.1 622.4C4151.4 621.3 4149.8 620.4 4150.2 617.2L4150.5 614.5L4199.1 614.2C4242.6 614.0 4247.9 614.2 4249.1 615.6C4251.0 617.9 4249.1 620.3 4244.4 621.4C4235.7 623.3 4231.4 625.4 4227.0 629.9C4218.4 638.7 4218.9 632.7 4219.3 733.1C4219.6 819.5 4219.6 821.7 4221.8 832.0C4231.1 876.6 4253.1 896.0 4294.5 896.0C4333.6 896.0 4363.5 874.8 4374.9 839.0C4378.8 826.5 4379.1 819.2 4378.8 728.5C4378.5 631.5 4379.0 639.1 4371.5 630.2C4367.5 625.6 4363.3 623.4 4355.8 622.0C4349.8 620.8 4347.5 618.8 4349.1 615.9C4350.0 614.1 4352.1 614.0 4398.2 614.2C4443.4 614.5 4446.3 614.6 4447.4 616.3C4449.0 618.9 4445.4 621.6 4439.1 622.4C4431.7 623.4 4425.4 628.1 4421.1 636.1L4417.5 642.5L4417.5 759.5L4417.5 876.5L4419.8 881.5C4421.1 884.2 4423.3 887.8 4424.8 889.3C4428.4 893.2 4436.2 897.0 4440.2 897.0C4446.4 897.0 4450.7 902.6 4446.2 904.8C4445.3 905.2 4430.2 905.3 4412.7 905.0C4386.0 904.6 4380.8 904.3 4379.9 903.0C4379.3 902.1 4379.0 893.9 4379.2 882.8C4379.3 872.5 4379.1 863.8 4378.8 863.4C4377.7 862.4 4376.3 863.7 4370.5 871.5C4349.3 899.7 4316.5 912.5 4275.0 909.0ZM859.4 904.7C857.3 903.5 857.7 900.2 860.2 898.6C861.5 897.9 865.0 897.0 868.1 896.7C878.4 895.7 889.1 888.8 894.5 879.5C900.3 869.6 900.0 878.3 900.0 693.9C900.0 558.1 899.8 524.5 898.8 523.8C898.1 523.3 876.4 523.1 850.5 523.3C798.1 523.7 795.9 523.9 782.4 530.6C777.1 533.2 773.3 536.1 768.8 540.9C760.7 549.4 756.5 558.2 753.5 572.3C751.0 584.1 749.2 587.3 746.5 585.0C745.2 583.9 745.0 578.2 745.2 535.1L745.5 486.5L747.8 486.2C749.6 485.9 751.8 487.5 757.3 493.3C763.8 500.0 765.2 500.9 771.5 502.9L778.5 505.1L922.0 504.8L1065.5 504.5L1072.1 501.4C1076.2 499.4 1081.4 495.7 1085.7 491.6C1089.6 488.0 1093.2 485.0 1093.8 485.0C1094.4 485.0 1095.6 485.7 1096.4 486.6C1097.8 488.0 1098.0 493.7 1098.0 535.1C1098.0 581.9 1097.7 586.0 1094.6 586.0C1092.1 586.0 1090.8 583.1 1089.0 573.8C1086.7 562.3 1085.0 557.3 1080.6 550.1C1074.6 540.3 1065.4 532.6 1054.7 528.4C1042.8 523.7 1034.1 523.0 987.3 523.0C945.3 523.0 944.0 523.1 943.0 525.0C942.3 526.3 942.0 578.8 942.2 695.7C942.5 857.2 942.6 864.7 944.4 870.0C947.2 878.4 949.7 882.7 954.3 887.2C959.5 892.2 967.7 896.0 975.0 896.7C978.0 897.0 981.5 897.9 982.8 898.6C985.2 900.2 985.8 903.8 983.6 904.6C981.3 905.5 861.0 905.6 859.4 904.7ZM1097.7 903.9C1096.1 902.6 1095.9 902.0 1096.9 900.3C1098.0 898.2 1099.2 897.7 1107.8 896.5C1116.9 895.1 1125.1 885.5 1127.0 874.0C1128.4 864.7 1128.4 653.9 1126.9 645.1C1124.8 632.5 1116.8 624.2 1104.9 622.1C1098.6 621.0 1096.0 619.7 1096.0 617.5C1096.0 614.1 1098.3 613.9 1146.6 614.0C1187.8 614.0 1194.7 614.2 1196.0 615.5C1198.5 618.1 1196.0 620.3 1188.7 622.1C1178.5 624.6 1173.5 628.4 1169.2 636.5L1166.5 641.5L1166.2 695.4C1166.1 725.1 1166.3 749.7 1166.8 750.2C1167.3 750.7 1201.8 751.1 1243.5 751.1C1304.1 751.1 1319.5 750.8 1320.2 749.8C1320.6 749.1 1321.0 725.5 1321.0 697.3C1321.0 647.5 1320.9 645.9 1318.9 640.3C1317.4 636.2 1315.2 633.0 1311.6 629.4C1306.5 624.4 1305.8 624.1 1293.5 621.1C1291.0 620.5 1290.5 619.9 1290.5 617.5L1290.5 614.5L1339.1 614.2C1382.6 614.0 1387.9 614.2 1389.1 615.6C1391.3 618.2 1388.9 620.4 1381.7 622.1C1373.6 624.1 1368.7 627.1 1364.9 632.3C1358.8 640.8 1359.0 635.6 1359.0 759.4C1359.0 881.2 1358.9 878.8 1364.2 886.6C1367.3 891.3 1375.0 896.1 1380.2 896.7C1387.1 897.5 1390.0 898.9 1390.0 901.6C1390.0 902.8 1389.5 904.2 1389.0 904.5C1387.2 905.6 1291.9 905.3 1290.8 904.2C1290.3 903.7 1290.0 902.2 1290.2 900.9C1290.4 899.0 1291.4 898.3 1294.5 897.7C1304.6 895.5 1307.2 894.5 1311.1 891.2C1313.5 889.1 1316.4 885.2 1317.9 882.0L1320.5 876.5L1320.8 821.1C1321.0 780.4 1320.8 765.4 1319.9 764.4C1318.2 762.3 1168.8 762.3 1167.1 764.4C1166.2 765.4 1166.0 780.4 1166.2 822.2L1166.5 878.5L1169.6 884.0C1173.2 890.3 1180.1 895.6 1185.8 896.5C1195.5 898.0 1196.5 898.4 1196.8 901.3C1197.0 903.0 1196.6 904.2 1195.6 904.6C1194.7 904.9 1172.8 905.3 1146.8 905.4C1105.3 905.5 1099.4 905.3 1097.7 903.9ZM1424.4 904.7C1423.6 904.3 1423.0 902.8 1423.0 901.4C1423.0 898.6 1426.1 897.0 1431.2 897.0C1438.1 897.0 1447.0 890.6 1451.3 882.6L1453.5 878.5L1453.8 765.5C1454.0 703.4 1453.8 649.7 1453.5 646.3C1452.2 633.8 1443.4 624.3 1430.8 622.1C1423.9 620.9 1421.4 618.9 1423.1 615.9C1424.0 614.1 1427.3 614.0 1514.4 614.0C1592.0 614.0 1604.9 614.2 1606.0 615.4C1607.2 617.0 1607.8 665.0 1606.5 667.0C1605.6 668.4 1601.4 668.2 1600.1 666.7C1599.5 665.9 1598.4 662.1 1597.5 658.2C1596.7 654.2 1595.1 649.1 1593.9 646.9C1589.2 637.5 1577.1 629.2 1565.4 627.1C1556.4 625.5 1495.4 625.4 1493.5 627.0C1492.2 628.1 1492.0 636.1 1492.0 688.6L1492.0 749.0L1494.2 750.3C1496.1 751.4 1502.3 751.5 1526.0 751.0C1550.9 750.5 1556.1 750.1 1559.5 748.7C1569.3 744.4 1574.5 738.6 1578.1 728.2C1580.4 721.4 1581.6 720.0 1584.6 720.0C1586.3 720.0 1587.4 720.8 1588.0 722.6C1588.6 724.0 1589.0 739.0 1589.0 757.8C1589.0 785.8 1588.8 790.9 1587.4 792.8C1586.6 794.0 1585.3 795.0 1584.5 795.0C1582.2 795.0 1579.3 791.1 1578.1 786.3C1575.7 777.0 1567.7 768.3 1558.8 765.4C1554.4 763.9 1548.7 763.5 1524.4 763.2C1498.0 762.9 1495.1 763.0 1493.6 764.6C1492.0 766.1 1491.9 770.5 1492.2 819.9C1492.5 857.2 1493.0 874.5 1493.8 876.9C1495.7 882.6 1499.3 886.8 1504.5 889.7L1509.5 892.5L1540.0 892.5C1570.2 892.5 1570.6 892.4 1576.2 890.0C1583.7 886.8 1591.5 881.0 1596.3 875.1C1598.4 872.6 1602.5 865.7 1605.5 859.9C1610.9 849.4 1612.6 847.5 1615.5 848.6C1618.0 849.6 1618.2 852.7 1616.1 860.7C1615.0 865.0 1613.2 873.0 1611.9 878.5C1608.5 894.1 1606.2 902.3 1604.7 903.7C1603.7 904.8 1586.5 905.1 1514.6 905.3C1465.8 905.4 1425.2 905.1 1424.4 904.7ZM1910.9 904.2C1906.4 901.1 1909.5 898.2 1918.7 896.9C1931.2 895.1 1941.1 888.7 1946.4 878.9C1952.1 868.3 1952.0 871.7 1952.0 691.7C1952.0 580.0 1951.7 526.2 1951.0 524.9C1950.0 523.1 1948.4 523.0 1907.0 523.0C1857.3 523.0 1848.7 523.8 1836.4 529.5C1827.0 533.8 1821.0 538.7 1815.6 546.4C1809.1 555.7 1807.0 561.6 1803.3 580.4C1802.3 585.4 1799.5 587.3 1797.4 584.6C1796.2 582.9 1796.0 575.0 1796.0 535.4C1796.0 493.8 1796.2 488.0 1797.6 486.6C1798.4 485.7 1799.5 485.0 1800.0 485.0C1801.2 485.0 1804.2 488.0 1808.4 493.2C1810.9 496.5 1814.1 498.9 1818.8 501.2L1825.5 504.5L1971.5 504.5L2117.5 504.5L2123.2 501.8C2126.6 500.2 2132.1 496.2 2136.4 492.1C2140.5 488.2 2144.3 485.0 2144.8 485.0C2145.2 485.0 2146.4 485.6 2147.3 486.3C2148.9 487.4 2149.0 491.4 2149.1 535.7C2149.1 562.2 2148.9 584.4 2148.5 585.0C2147.6 586.5 2144.4 586.2 2143.0 584.5C2142.4 583.7 2141.5 580.2 2141.0 576.6C2138.4 555.4 2126.9 538.4 2109.6 530.0C2096.7 523.7 2089.1 523.0 2038.1 523.0C1999.9 523.0 1995.1 523.2 1994.6 524.6C1994.3 525.5 1994.0 602.2 1994.0 695.0L1994.0 863.9L1996.5 871.7C2000.8 885.5 2012.0 895.0 2025.6 896.6C2033.6 897.5 2034.9 897.9 2036.1 900.1C2038.8 905.1 2039.1 905.1 1973.5 905.3C1924.9 905.5 1912.4 905.2 1910.9 904.2ZM2149.3 904.2C2146.2 901.0 2149.2 897.6 2156.0 896.6C2163.9 895.4 2171.5 889.6 2175.8 881.5L2178.5 876.5L2178.5 759.5L2178.5 642.5L2175.2 636.0C2170.7 627.0 2163.8 622.2 2155.4 622.0C2153.6 622.0 2151.2 621.1 2149.9 620.1C2147.9 618.5 2147.7 617.8 2148.6 616.3C2149.7 614.6 2153.2 614.5 2218.1 614.5C2281.0 614.5 2287.1 614.6 2294.0 616.3C2311.7 620.7 2322.6 626.5 2333.5 637.5C2343.0 647.1 2348.5 657.2 2352.0 671.5C2360.3 705.6 2338.3 744.2 2303.2 757.0C2299.1 758.5 2297.0 759.8 2297.0 760.9C2297.0 761.8 2299.5 764.0 2302.8 765.9C2309.9 770.2 2323.7 784.1 2331.2 794.5C2334.3 798.9 2344.9 816.3 2354.8 833.2C2376.3 869.8 2381.1 877.0 2389.9 885.2C2396.4 891.4 2402.1 894.6 2411.0 897.2C2414.8 898.3 2415.6 898.9 2415.8 901.2C2416.1 903.4 2415.6 904.2 2413.8 904.7C2412.5 905.2 2399.4 905.4 2384.7 905.2L2357.9 904.9L2353.8 900.5C2347.4 893.7 2338.5 880.7 2324.6 857.8C2303.5 822.8 2296.1 811.4 2289.0 802.2C2275.3 784.4 2257.3 772.4 2238.6 768.6C2229.8 766.8 2218.4 766.5 2217.5 768.0C2216.4 769.8 2217.0 871.8 2218.1 877.1C2220.1 886.5 2229.4 894.9 2239.5 896.5C2241.7 896.9 2244.5 897.8 2245.8 898.6C2248.4 900.3 2248.7 904.0 2246.2 904.6C2245.3 904.9 2223.4 905.2 2197.6 905.3C2159.8 905.5 2150.4 905.2 2149.3 904.2ZM2485.8 905.0C2482.6 904.2 2482.2 900.5 2485.2 898.7C2486.5 897.9 2489.3 896.9 2491.5 896.5C2496.3 895.7 2503.8 891.1 2506.6 887.3C2507.8 885.8 2509.5 882.0 2510.6 879.0C2512.4 873.9 2512.5 870.1 2512.5 820.5L2512.5 767.5L2492.1 735.5C2471.1 702.6 2461.9 688.3 2454.5 677.0C2452.2 673.4 2445.9 663.8 2440.5 655.6C2426.0 633.3 2417.0 625.3 2403.2 622.9C2395.0 621.4 2394.2 621.1 2393.5 618.9C2391.9 614.0 2391.5 614.0 2447.0 614.0C2493.0 614.0 2498.9 614.2 2500.1 615.6C2502.0 617.9 2500.1 620.3 2495.4 621.3C2485.5 623.4 2483.4 624.4 2479.8 628.1C2474.9 633.3 2474.2 637.2 2477.1 644.1C2478.3 647.1 2486.6 661.0 2495.3 675.0C2504.1 689.0 2512.4 702.3 2513.7 704.5C2518.1 712.0 2539.9 746.5 2541.0 747.7C2542.3 749.3 2544.8 748.3 2545.5 745.9C2546.0 744.3 2569.1 700.8 2587.4 667.0C2593.8 655.3 2598.2 645.6 2600.0 639.3C2601.1 635.6 2601.0 634.7 2599.2 630.8C2596.6 625.6 2593.5 623.5 2585.5 622.1C2578.6 620.8 2576.0 618.9 2577.6 616.2C2578.6 614.6 2581.9 614.5 2615.8 614.2C2652.0 614.0 2652.9 614.0 2654.0 616.0C2655.7 619.1 2652.3 621.7 2645.5 622.5C2642.2 623.0 2636.8 624.7 2632.9 626.7C2622.0 632.2 2615.4 639.8 2605.7 658.0C2603.3 662.7 2592.1 683.6 2581.0 704.5C2569.9 725.4 2558.3 747.0 2555.4 752.6L2550.0 762.7L2550.0 817.4C2550.0 869.1 2550.1 872.3 2552.0 877.6C2555.6 888.0 2562.4 894.0 2573.7 896.6C2579.4 897.9 2582.0 899.4 2582.0 901.5C2582.0 905.0 2579.8 905.2 2533.6 905.3C2508.6 905.4 2487.1 905.3 2485.8 905.0ZM2630.9 904.2C2627.0 901.5 2629.5 898.2 2636.9 896.1C2649.6 892.5 2658.7 881.3 2667.3 859.0C2668.7 855.4 2681.6 819.9 2696.0 780.0C2710.4 740.1 2723.5 703.9 2725.2 699.5C2728.3 691.4 2735.0 672.8 2737.5 665.5C2738.3 663.3 2740.1 658.4 2741.5 654.5C2743.0 650.6 2744.8 645.5 2745.6 643.0C2746.4 640.5 2747.4 637.6 2748.0 636.5C2749.1 634.0 2752.7 623.8 2754.2 618.8C2754.8 616.7 2756.3 613.9 2757.6 612.5C2759.7 610.2 2760.5 610.0 2769.3 610.0C2775.2 610.0 2779.2 610.5 2780.2 611.2C2781.1 611.9 2782.8 615.0 2784.0 618.0C2785.2 621.0 2787.0 625.6 2788.1 628.2C2789.1 630.9 2790.9 635.2 2792.0 638.0C2793.1 640.8 2794.9 645.1 2796.0 647.8C2797.0 650.4 2808.0 677.9 2820.3 709.0C2852.5 790.3 2876.4 850.3 2880.2 859.5C2890.4 883.9 2898.8 893.6 2912.7 897.0C2916.0 897.8 2917.1 898.6 2917.6 900.6C2918.0 902.0 2917.8 903.6 2917.3 904.1C2915.8 905.6 2818.3 905.5 2816.5 904.0C2812.6 900.8 2815.8 898.1 2824.9 896.9C2836.4 895.5 2842.8 891.1 2845.0 883.2C2846.6 877.4 2843.8 868.2 2830.0 833.5C2823.0 815.9 2816.7 799.9 2816.0 797.9C2815.3 795.9 2814.0 793.3 2813.1 792.1C2811.5 789.9 2811.4 789.9 2759.5 789.9C2711.1 789.9 2707.5 790.1 2705.9 791.7C2703.9 793.9 2683.8 849.8 2680.4 862.5C2677.7 872.6 2677.3 881.5 2679.4 886.3C2681.3 890.9 2687.2 895.8 2691.7 896.5C2699.0 897.6 2700.5 898.4 2700.8 901.3C2701.0 903.1 2700.6 904.2 2699.5 904.6C2698.6 905.0 2683.2 905.3 2665.3 905.4C2640.0 905.5 2632.3 905.2 2630.9 904.2ZM2948.9 904.2C2947.8 903.5 2947.0 902.3 2947.0 901.5C2947.0 899.4 2951.1 897.0 2954.8 897.0C2963.0 897.0 2971.1 891.1 2975.4 882.1L2978.5 875.5L2978.5 760.0C2978.5 649.1 2978.4 644.3 2976.6 639.6C2973.0 630.3 2962.5 622.0 2954.4 622.0C2952.6 622.0 2950.2 621.1 2948.9 620.1C2946.9 618.5 2946.7 617.8 2947.6 616.3C2948.7 614.6 2951.5 614.5 2997.6 614.5L3046.5 614.5L3046.5 617.5C3046.5 620.4 3046.2 620.6 3039.8 622.1C3031.7 624.1 3027.1 626.8 3022.9 632.2C3016.8 639.8 3017.0 636.1 3017.0 757.6C3017.0 828.0 3017.4 870.7 3018.0 874.1C3019.3 881.3 3023.3 886.8 3029.5 889.9C3034.4 892.5 3034.7 892.5 3062.3 892.8C3088.0 893.1 3090.8 893.0 3096.9 891.1C3111.4 886.7 3121.6 877.2 3130.0 860.2C3134.9 850.2 3137.4 847.5 3140.3 848.6C3142.8 849.5 3143.0 852.9 3140.9 859.2C3139.9 862.5 3139.0 866.1 3139.0 867.1C3139.0 868.1 3138.2 872.2 3137.1 876.2C3136.1 880.2 3134.2 887.9 3132.9 893.3C3131.6 898.7 3130.1 903.5 3129.5 904.0C3128.8 904.5 3090.2 905.1 3039.6 905.2C2967.7 905.4 2950.4 905.3 2948.9 904.2ZM3187.4 904.7C3183.7 902.6 3187.7 897.0 3193.0 897.0C3201.2 897.0 3210.1 890.6 3214.1 881.8L3216.5 876.5L3216.5 760.5C3216.5 665.4 3216.3 643.8 3215.1 640.5C3211.9 631.0 3203.8 623.7 3195.1 622.4C3187.4 621.3 3185.8 620.4 3186.2 617.2L3186.5 614.5L3235.1 614.2C3278.6 614.0 3283.9 614.2 3285.1 615.6C3287.3 618.3 3284.9 620.4 3277.5 622.2C3273.7 623.1 3268.8 625.1 3266.6 626.7C3261.9 630.0 3256.5 638.3 3255.6 643.7C3254.5 650.4 3255.0 870.1 3256.1 875.0C3257.5 881.4 3261.2 886.4 3266.7 889.7L3271.5 892.5L3301.3 892.8C3334.5 893.2 3337.2 892.8 3348.6 886.5C3358.1 881.2 3366.2 871.4 3372.6 857.4C3376.2 849.6 3379.1 847.0 3381.6 849.1C3383.4 850.6 3383.4 854.7 3381.6 861.3C3380.8 864.2 3378.5 874.4 3376.5 884.0C3374.2 894.4 3372.0 902.2 3371.1 903.3C3369.5 904.9 3363.9 905.0 3279.1 905.3C3229.5 905.4 3188.2 905.1 3187.4 904.7ZM3960.9 904.8C3958.7 903.9 3958.4 900.8 3960.4 899.1C3961.2 898.5 3964.4 897.5 3967.5 897.0C3976.2 895.6 3982.3 891.0 3986.8 882.5L3989.5 877.5L3989.5 759.9L3989.5 642.4L3986.5 636.5C3983.0 629.7 3977.0 624.6 3970.7 623.0C3960.1 620.4 3959.0 619.9 3959.0 618.1C3959.0 617.1 3959.6 615.8 3960.3 615.1C3962.4 613.4 4057.0 613.5 4058.1 615.2C4060.3 618.7 4057.3 621.3 4050.0 622.4C4044.0 623.3 4037.6 627.2 4033.9 632.2C4027.8 640.8 4028.0 635.7 4028.0 757.5C4028.0 828.7 4028.4 870.7 4029.0 874.1C4030.4 881.1 4033.9 886.2 4039.7 889.7L4044.5 892.5L4080.5 892.5L4116.5 892.5L4122.9 889.8C4136.0 884.1 4144.2 875.7 4152.4 859.3C4157.3 849.6 4159.3 847.5 4162.3 849.1C4164.4 850.3 4164.4 853.0 4162.6 860.7C4161.8 863.9 4160.2 871.0 4159.0 876.5C4155.2 894.4 4153.0 902.4 4151.7 903.7C4150.7 904.7 4131.9 905.1 4056.7 905.3C4005.1 905.4 3962.0 905.2 3960.9 904.8ZM4482.0 904.8C4477.3 903.1 4479.1 898.4 4484.8 897.5C4496.2 895.7 4502.5 891.8 4506.7 883.8L4509.5 878.5L4509.5 759.5L4509.5 640.5L4506.8 635.8C4505.2 633.3 4502.2 629.6 4500.0 627.7C4496.3 624.6 4494.1 623.7 4483.6 621.2C4479.8 620.3 4478.2 617.7 4479.9 615.6C4481.1 614.2 4487.2 614.0 4535.6 614.0C4590.9 614.0 4598.4 614.4 4612.6 618.0C4628.9 622.2 4639.8 628.1 4650.5 638.5C4663.8 651.5 4669.5 665.0 4669.5 683.5C4669.5 696.2 4667.2 705.0 4661.4 714.7C4654.2 726.6 4640.0 738.3 4625.1 744.5C4617.3 747.7 4615.3 749.6 4619.2 750.3C4642.1 754.5 4653.0 758.4 4666.0 767.1C4680.1 776.5 4688.9 787.8 4694.7 803.7C4696.8 809.4 4697.0 811.9 4697.0 826.9C4697.0 845.0 4695.8 851.6 4690.4 862.1C4682.2 878.4 4663.9 892.6 4642.5 899.3C4625.4 904.6 4619.9 905.0 4549.2 905.3C4513.3 905.4 4483.0 905.2 4482.0 904.8ZM4612.5 891.0C4623.3 887.6 4630.8 883.2 4638.5 875.5C4650.7 863.4 4655.9 850.7 4656.7 831.0C4657.2 820.1 4656.9 817.3 4655.0 810.0C4647.9 783.4 4629.6 767.0 4599.8 761.0C4587.3 758.4 4551.0 758.0 4549.0 760.4C4547.5 762.3 4548.2 869.5 4549.8 875.4C4552.2 884.0 4561.6 891.2 4572.7 893.0C4582.6 894.5 4604.5 893.4 4612.5 891.0ZM2806.6 776.6C2806.9 775.8 2805.8 771.9 2804.2 767.8C2801.1 760.4 2791.3 735.6 2779.7 706.0C2760.1 656.3 2757.3 649.5 2756.0 649.5C2755.1 649.5 2753.3 653.2 2751.3 659.0C2749.5 664.2 2746.6 672.3 2745.0 677.0C2741.0 688.5 2738.0 697.1 2732.5 712.5C2730.0 719.6 2725.5 732.5 2722.5 741.0C2719.6 749.5 2715.7 760.6 2713.9 765.7C2712.2 770.7 2711.0 775.5 2711.3 776.4C2711.9 777.8 2716.9 778.0 2759.0 778.0C2798.5 778.0 2806.1 777.8 2806.6 776.6ZM2253.5 755.0C2278.5 751.4 2295.8 740.7 2304.4 723.8C2310.0 712.5 2311.4 705.6 2311.4 690.0C2311.4 678.0 2311.1 675.6 2308.7 668.7C2298.8 640.0 2274.7 625.9 2236.0 626.1C2227.1 626.1 2218.6 627.1 2217.4 628.3C2217.1 628.5 2216.9 657.0 2216.9 691.6C2217.0 741.0 2217.2 754.5 2218.2 755.2C2220.0 756.3 2245.1 756.2 2253.5 755.0ZM4576.6 746.9C4609.7 743.6 4628.1 725.9 4630.4 695.0C4633.4 655.2 4613.2 628.7 4578.2 626.4C4565.7 625.5 4551.5 626.7 4549.5 628.7C4548.2 629.9 4548.0 638.1 4548.0 686.8C4548.0 736.6 4548.2 743.8 4549.6 745.8C4550.9 747.7 4552.0 748.0 4558.4 748.0C4562.4 748.0 4570.6 747.5 4576.6 746.9ZM415.8 604.5C416.9 603.2 418.7 599.2 419.9 595.8C424.7 582.3 427.2 577.6 439.7 557.9C460.3 525.6 462.1 521.8 472.0 489.9C473.1 486.3 474.0 482.7 474.0 481.9C474.0 480.5 475.7 474.5 480.7 458.2C483.8 448.5 489.6 439.1 506.7 416.4C513.2 407.7 519.3 399.6 520.4 398.3C523.3 394.6 521.2 393.2 515.2 394.9C512.6 395.6 507.8 396.8 504.5 397.5C501.2 398.2 494.3 399.7 489.2 400.9C466.0 406.1 462.0 407.0 453.5 408.8C440.2 411.8 436.2 412.7 428.5 414.6C424.6 415.5 419.7 416.5 417.5 416.8C415.3 417.0 412.9 417.7 412.1 418.4C411.3 419.0 408.7 423.8 406.3 429.0C401.8 438.7 392.0 458.1 386.7 468.0C385.1 471.0 381.7 477.3 379.2 481.9L374.7 490.2L375.3 502.9C375.6 509.9 376.2 516.4 376.6 517.3C377.7 520.2 380.6 519.2 383.5 514.8C388.4 507.5 393.6 504.0 395.5 506.9C395.8 507.5 395.2 511.2 394.1 515.2C393.0 519.1 392.4 522.8 392.6 523.2C393.8 525.0 396.0 523.7 400.5 518.4C403.9 514.4 405.8 513.0 407.4 513.2C409.3 513.5 409.5 514.2 409.8 520.2C410.2 530.1 412.8 529.2 420.0 516.6C423.7 510.2 427.5 507.4 434.3 506.3C437.2 505.9 438.0 506.2 438.9 507.9C440.3 510.4 437.6 516.1 427.4 532.6C410.0 560.8 402.4 582.3 405.0 596.0C406.0 601.5 406.5 602.5 408.8 605.2C410.9 607.7 413.5 607.4 415.8 604.5ZM327.8 528.1C341.4 515.8 352.8 502.1 365.5 482.6C373.8 469.8 395.4 432.6 397.6 427.4C398.9 424.3 398.9 423.9 397.0 422.0C394.6 419.6 392.7 419.5 391.0 421.4C390.4 422.2 388.3 423.4 386.5 424.0C383.0 425.2 380.6 428.4 374.0 440.5C372.2 443.8 364.1 458.2 356.0 472.5C347.9 486.8 338.4 503.6 334.9 509.9C331.4 516.2 325.9 524.2 322.8 527.7C317.2 533.8 315.9 536.0 318.0 536.0C318.5 536.0 322.9 532.4 327.8 528.1ZM306.1 521.8C315.7 505.4 336.3 462.9 343.2 445.2C346.3 437.0 346.7 433.5 344.5 432.6C341.9 431.6 338.3 438.0 331.0 456.6C320.3 483.5 314.6 496.7 304.8 516.5C297.0 532.2 296.3 534.1 299.0 531.5C300.8 529.9 303.9 525.5 306.1 521.8ZM335.7 489.2C343.2 477.6 365.0 438.5 366.1 434.7C367.2 430.8 366.3 429.0 362.9 429.0C359.0 429.0 356.4 433.0 351.1 446.5C346.4 458.6 339.6 474.5 334.4 485.7C330.7 493.5 330.6 494.0 331.8 494.0C332.3 494.0 334.0 491.9 335.7 489.2ZM222.1 451.1C221.0 450.4 221.1 450.0 222.8 449.1C225.2 447.8 235.0 447.6 235.0 448.8C235.0 451.3 225.1 453.0 222.1 451.1ZM352.4 413.8C353.3 412.6 354.0 410.8 354.0 409.8C354.0 408.9 354.6 406.6 355.4 404.8C356.2 403.0 358.1 397.4 359.5 392.5C362.0 384.1 364.2 376.8 367.5 366.0C368.2 363.5 370.1 357.4 371.6 352.5C373.1 347.6 375.3 340.4 376.6 336.5C384.7 312.1 387.2 307.0 391.1 307.0C396.5 307.0 395.6 318.2 387.9 347.0C386.8 351.1 385.4 355.9 384.8 357.5C384.2 359.1 383.2 362.5 382.4 365.0C381.7 367.5 379.9 372.6 378.5 376.5C377.0 380.4 375.0 385.8 374.0 388.5C369.6 400.4 368.8 402.4 366.9 406.1C365.8 408.3 365.2 410.5 365.5 411.0C365.8 411.6 367.9 412.0 370.1 412.0C373.5 412.0 374.4 411.5 376.8 408.1C382.1 400.7 389.6 375.9 399.1 334.0C400.2 328.8 402.1 320.9 403.1 316.6C404.1 312.2 405.0 307.6 405.0 306.2C405.0 300.1 410.4 297.7 413.5 302.4C414.9 304.5 415.1 308.1 414.9 325.6C414.7 346.0 415.1 349.0 417.8 345.7C418.4 345.0 420.5 335.0 422.5 323.5C426.8 297.6 428.6 294.2 434.4 301.1C436.6 303.7 437.0 305.1 437.0 310.4C437.0 313.9 436.5 319.1 436.0 322.0C435.0 327.1 435.8 330.0 438.0 330.0C438.9 330.0 447.4 315.7 449.5 310.6C452.3 304.1 452.6 295.1 450.2 289.8C447.7 284.2 444.9 282.9 441.1 285.8C429.1 295.3 426.9 295.5 414.6 289.0L406.2 284.5L397.1 289.0C392.1 291.4 386.5 294.9 384.7 296.7C379.6 301.5 375.5 310.3 372.6 322.0C368.1 339.8 367.0 343.9 360.9 363.0C346.7 407.9 344.8 415.0 346.0 416.5C347.5 418.3 350.1 417.1 352.4 413.8ZM427.1 398.0C429.5 396.9 433.0 396.0 434.7 396.0C438.5 396.0 446.9 390.9 452.0 385.5C456.8 380.4 466.6 373.6 472.1 371.6C476.6 369.9 476.7 369.9 490.9 373.4C498.7 375.4 507.5 377.0 510.4 377.0C520.6 377.0 534.5 367.4 544.8 353.2C560.5 331.5 581.5 287.9 594.0 251.0C597.5 240.7 598.2 238.2 602.7 221.0C606.8 205.4 613.0 171.2 615.1 152.5C615.7 147.0 616.4 141.5 616.6 140.3C616.8 139.0 620.1 136.0 625.1 132.4C629.5 129.3 635.5 124.4 638.4 121.6C644.5 115.6 654.6 100.6 662.0 86.5C664.9 81.0 668.6 74.6 670.1 72.3C677.0 62.2 688.1 56.6 704.2 55.0C716.4 53.7 727.0 51.9 727.6 50.8C728.5 49.4 695.2 49.9 686.0 51.4C675.1 53.2 663.3 57.2 652.5 62.7C647.6 65.1 645.6 64.2 644.9 59.1C643.7 50.2 633.9 47.0 627.4 53.5C624.4 56.5 624.3 60.1 627.1 65.0C631.4 72.6 628.6 73.4 602.0 72.4L583.2 71.7L575.8 75.3C571.3 77.5 562.6 83.6 553.5 90.9C536.8 104.3 529.1 109.3 521.2 111.5C517.5 112.6 515.7 113.7 515.1 115.3C514.1 117.7 511.1 134.7 508.0 154.5C505.4 170.7 502.4 188.9 500.5 200.0C499.7 204.7 498.5 211.6 498.0 215.3C494.8 236.1 490.3 246.9 456.5 315.0C444.8 338.4 432.1 364.7 428.1 373.5C424.1 382.3 420.0 391.2 418.9 393.3C417.3 396.3 417.1 397.4 418.1 398.6C419.7 400.5 422.0 400.4 427.1 398.0ZM611.2 367.4C612.7 366.6 616.5 365.6 619.7 365.1C622.9 364.6 628.0 363.5 631.0 362.7C640.2 360.2 645.2 358.9 651.5 357.5C663.5 354.8 671.6 352.9 676.0 351.5C678.5 350.7 682.3 349.8 684.5 349.4C686.7 349.1 690.8 348.2 693.5 347.5C696.2 346.7 703.0 345.1 708.5 343.9C714.0 342.8 720.5 341.2 723.0 340.5C725.5 339.7 729.3 338.9 731.5 338.5C733.7 338.2 737.8 337.3 740.5 336.5C747.8 334.4 758.8 331.9 764.5 330.9C767.2 330.5 771.3 329.4 773.5 328.6C775.7 327.8 779.1 327.1 781.1 327.0C783.1 327.0 786.7 326.1 789.1 325.0C791.5 323.9 795.1 323.0 797.1 323.0C799.1 323.0 802.7 322.1 805.1 321.0C807.5 319.9 810.9 319.0 812.5 319.0C816.6 319.0 827.4 314.5 827.8 312.6C828.0 311.8 827.0 310.4 825.5 309.4C822.6 307.5 817.2 308.0 812.4 310.5C810.8 311.3 807.9 312.0 806.0 312.0C804.1 312.1 800.7 312.8 798.5 313.6C796.3 314.5 791.7 315.6 788.3 316.1C784.9 316.5 780.7 317.6 779.1 318.5C777.4 319.3 774.5 320.0 772.6 320.0C770.7 320.0 766.8 320.9 764.0 322.0C761.2 323.1 757.4 324.0 755.5 324.0C753.6 324.0 749.8 324.9 747.0 326.0C744.2 327.1 740.2 328.0 738.1 328.0C736.0 328.0 732.3 328.9 729.9 330.0C727.5 331.1 723.6 332.0 721.4 332.0C719.1 332.0 715.3 332.9 712.9 334.0C710.5 335.1 706.6 336.0 704.4 336.0C702.1 336.0 698.3 336.9 695.9 338.0C693.5 339.1 689.4 340.0 686.7 340.0C683.9 340.0 680.5 340.8 678.3 342.0C676.1 343.2 672.6 344.0 669.9 344.0C667.3 344.0 663.1 344.9 660.5 346.1C657.7 347.4 654.7 348.0 653.1 347.7C651.5 347.4 648.6 347.9 646.1 349.1C643.7 350.1 639.7 351.0 637.1 351.0C634.4 351.0 630.9 351.8 628.7 353.0C626.5 354.2 623.1 355.0 620.3 355.0C617.6 355.0 614.1 355.7 612.5 356.6C610.9 357.5 606.5 358.6 602.8 359.0C599.0 359.4 594.9 360.5 593.5 361.4C590.6 363.3 590.2 367.4 592.8 368.9C595.0 370.3 607.6 369.2 611.2 367.4ZM937.4 294.7C938.3 294.0 939.4 291.6 939.7 289.4C940.1 286.1 939.8 284.9 937.5 282.2C932.9 276.8 925.2 278.7 927.9 284.6C928.5 286.0 929.0 288.6 929.0 290.3C929.0 292.1 929.5 294.1 930.2 294.8C931.8 296.4 935.2 296.3 937.4 294.7ZM970.3 286.2C974.6 281.5 972.8 273.4 967.0 271.0C962.0 268.9 960.9 270.7 961.7 279.4C962.0 283.3 962.8 286.8 963.4 287.2C965.4 288.5 968.6 288.0 970.3 286.2ZM391.6 282.0C397.3 277.7 400.0 273.7 400.0 269.5C400.0 264.8 397.3 265.4 391.4 271.6C384.0 279.3 381.1 286.0 385.2 286.0C385.8 286.0 388.7 284.2 391.6 282.0ZM431.0 281.0C433.7 279.6 437.1 276.1 441.5 270.3C451.0 257.5 450.0 254.7 438.2 261.7C430.9 266.0 422.0 274.9 422.0 277.9C422.0 279.0 423.0 280.6 424.2 281.4C426.9 283.3 426.3 283.4 431.0 281.0ZM1002.0 276.2C1003.9 269.8 999.5 263.4 993.8 264.2C991.9 264.4 991.5 265.1 991.7 267.5C992.2 278.2 993.1 280.0 998.2 280.0C1000.5 280.0 1001.1 279.4 1002.0 276.2ZM419.3 263.1C424.7 258.0 432.0 246.9 432.0 243.8C432.0 240.1 425.4 242.3 415.6 249.3C410.2 253.2 407.0 257.4 407.0 260.6C407.0 263.2 410.6 268.0 412.6 268.0C413.5 268.0 416.5 265.8 419.3 263.1ZM469.1 257.0C483.0 234.3 486.0 227.6 486.0 219.0C486.0 209.6 484.4 209.9 473.5 221.1C461.3 233.7 458.0 241.9 461.0 252.9C461.5 254.9 462.2 257.8 462.5 259.3C463.3 263.3 465.8 262.4 469.1 257.0ZM400.1 241.8C401.9 238.9 405.5 233.5 408.2 229.9C413.0 223.3 413.9 220.7 412.0 219.5C410.1 218.3 407.5 220.1 403.5 225.3C399.1 231.1 395.1 240.1 395.0 244.2C395.0 248.3 396.4 247.6 400.1 241.8ZM447.2 242.2C451.1 238.0 458.3 225.2 457.6 223.5C456.7 221.1 455.6 221.7 451.0 226.6C444.5 233.6 440.0 245.0 443.8 245.0C444.2 245.0 445.8 243.8 447.2 242.2ZM429.5 232.1C434.8 229.7 444.0 221.3 444.0 218.9C444.0 215.0 434.4 217.7 424.8 224.3C418.8 228.4 417.6 231.1 420.8 232.9C423.2 234.4 424.9 234.2 429.5 232.1ZM462.3 200.2C461.7 191.8 460.7 190.3 457.9 193.6C455.8 196.2 456.1 206.3 458.4 208.9C461.8 212.6 463.0 209.9 462.3 200.2ZM445.7 203.8C449.5 200.2 450.1 197.0 447.0 197.0C445.2 197.0 439.0 204.1 439.0 206.2C439.0 208.1 442.6 206.8 445.7 203.8ZM427.6 203.6C433.3 200.9 438.5 194.7 442.5 185.6C446.6 176.3 445.7 172.6 440.0 175.5C436.1 177.5 433.5 181.7 430.9 190.3C429.3 195.3 428.1 197.5 426.1 198.7C416.1 204.9 417.2 208.5 427.6 203.6ZM474.9 190.2C478.6 176.2 479.2 172.8 478.2 171.8C476.4 170.0 473.0 172.9 470.4 178.3C467.6 184.4 467.5 185.9 469.4 190.5C471.4 195.1 473.7 195.0 474.9 190.2ZM488.7 186.9C493.3 184.0 496.6 177.2 498.4 166.4C500.6 154.2 500.5 150.0 498.2 150.0C494.9 150.0 491.9 154.5 489.8 162.6C488.7 167.0 487.1 173.0 486.3 176.0C484.4 183.0 483.6 189.0 484.5 189.0C484.9 189.0 486.8 188.1 488.7 186.9ZM468.2 167.9C476.2 159.5 476.2 154.6 468.2 159.9C463.1 163.2 459.0 168.5 459.0 171.7C459.0 175.6 462.1 174.4 468.2 167.9ZM472.3 143.8C484.2 131.0 485.4 121.5 473.8 131.1C469.2 135.0 464.0 143.1 464.0 146.5C464.0 149.4 468.3 148.0 472.3 143.8ZM499.4 136.9C502.4 133.4 502.9 128.3 500.3 127.3C497.7 126.3 493.0 132.2 493.0 136.5C493.0 141.1 495.8 141.2 499.4 136.9ZM632.6 62.1C629.2 58.3 633.4 53.5 638.0 56.0C640.4 57.3 640.6 60.3 638.4 62.4C636.3 64.5 634.7 64.4 632.6 62.1Z"/></svg>